# xmcd
#
# Track frame offsets: 
#        300
#        24251
#        54253
#        74935
#        90654
#        107138
#        127573
#        147574
#        170123
#        188266
#        211324
#        228599
#        251951
#
# Disc length: 3490 seconds
#
# Revision: 2
# Processed by: cddbd v1.5.2PL0 Copyright (c) Steve Scherf et al.
# Submitted via: ExactAudioCopy v0.99pb5
#
DISCID=ba0d9e0d
DTITLE=Aynsley Lister, Erja Lyytinen and Ian Parker - Pilgrimage: Missis
DTITLE=sippi To Memphis
DYEAR=2005
DGENRE=British Blues Rock
TTITLE0=1010°
TTITLE1=All The Time 
TTITLE2=Heal Me Love
TTITLE3=Last Love Song
TTITLE4=You Don't Know
TTITLE5=To Much To Hide
TTITLE6=Mississippi Lawnmower Blues
TTITLE7=Blues Caravan
TTITLE8=Funky Mama
TTITLE9=Dreamland Blues
TTITLE10=Twinkle Toes Willie
TTITLE11=TIme Bares Witness
TTITLE12=Jam with Mister Tater, The Music Maker (Bonus)
EXTD=YEAR: 2006
EXTT0=
EXTT1=
EXTT2=
EXTT3=
EXTT4=
EXTT5=
EXTT6=
EXTT7=
EXTT8=
EXTT9=
EXTT10=
EXTT11=
EXTT12=
PLAYORDER=
